<svg width="256" height="256" viewBox="0 0 256 256" fill="none" xmlns="http://www.w3.org/2000/svg">
  <!-- 背景円 -->
  <circle cx="128" cy="128" r="120" fill="url(#grad)"></circle>
  <!-- ノート -->
  <rect x="52" y="64" width="80" height="120" rx="10" fill="#fff" stroke="#1F3A8A" stroke-width="6"></rect>
  <line x1="64" y1="92" x2="120" y2="92" stroke="#9CA3AF" stroke-width="4"></line>
  <line x1="64" y1="112" x2="120" y2="112" stroke="#9CA3AF" stroke-width="4"></line>
  <line x1="64" y1="132" x2="120" y2="132" stroke="#9CA3AF" stroke-width="4"></line>
  <line x1="64" y1="152" x2="120" y2="152" stroke="#9CA3AF" stroke-width="4"></line>
  <!-- 脳 -->
  <path d="M168 92c12 0 22 10 22 22c0 4-1 8-3 11c6 6 9 14 9 23c0 18-15 33-33 33h-32c-12 0-22-10-22-22c0-6 2-11 6-15c-2-3-3-7-3-11c0-12 10-22 22-22c3 0 5 0 8 1c4-13 15-20 26-20z" fill="#fff" stroke="#1F3A8A" stroke-width="6"></path>
  <!-- スパーク -->
  <path d="M184 64l6 12l12 6l-12 6l-6 12l-6-12l-12-6l12-6l6-12z" fill="#F59E0B"></path>
  <!-- 影 -->
  <ellipse cx="128" cy="210" rx="58" ry="10" fill="black" opacity=".08"></ellipse>
  <defs>
    <linearGradient id="grad" x1="40" y1="40" x2="220" y2="220" gradientUnits="userSpaceOnUse">
      <stop stop-color="#6366F1"></stop>
      <stop offset="1" stop-color="#22D3EE"></stop>
    </linearGradient>
  </defs>
</svg>
